<svg width="20" height="20" viewBox="0 0 20 20" fill="none" xmlns="http://www.w3.org/2000/svg">
    <circle cx="10" cy="10" r="9" fill="#0F190A"/>
    <circle cx="10" cy="10" r="9" fill="black" fill-opacity="0.2"/>
    <path fill-rule="evenodd" clip-rule="evenodd" d="M10 18.5C14.6944 18.5 18.5 14.6944 18.5 10C18.5 5.30558 14.6944 1.5 10 1.5C5.30558 1.5 1.5 5.30558 1.5 10C1.5 14.6944 5.30558 18.5 10 18.5ZM10 20C15.5228 20 20 15.5228 20 10C20 4.47715 15.5228 0 10 0C4.47715 0 0 4.47715 0 10C0 15.5228 4.47715 20 10 20Z" fill="white"/>
    <path d="M10 8.5H9.25C9.05109 8.5 8.86032 8.57902 8.71967 8.71967C8.57902 8.86032 8.5 9.05109 8.5 9.25C8.5 9.44891 8.57902 9.63968 8.71967 9.78033C8.86032 9.92098 9.05109 10 9.25 10H10V14.5C10 14.6989 10.079 14.8897 10.2197 15.0303C10.3603 15.171 10.5511 15.25 10.75 15.25C10.9489 15.25 11.1397 15.171 11.2803 15.0303C11.421 14.8897 11.5 14.6989 11.5 14.5V10C11.5 9.60217 11.342 9.22064 11.0607 8.93934C10.7794 8.65804 10.3978 8.5 10 8.5Z" fill="white"/>
    <path d="M10 7C10.6213 7 11.125 6.49632 11.125 5.875C11.125 5.25368 10.6213 4.75 10 4.75C9.37868 4.75 8.875 5.25368 8.875 5.875C8.875 6.49632 9.37868 7 10 7Z" fill="white"/>
</svg>
